<svg xmlns="http://www.w3.org/2000/svg" version="1.1" xmlns:xlink="http://www.w3.org/1999/xlink" xmlns:svgjs="http://svgjs.dev/svgjs" width="2000" height="1290" viewBox="0 0 2000 1290"><g transform="matrix(1,0,0,1,0.21333333333336668,1.1044100454545287)"><svg viewBox="0 0 375 242" data-background-color="#ffffff" preserveAspectRatio="xMidYMid meet" height="1290" width="2000" xmlns="http://www.w3.org/2000/svg" xmlns:xlink="http://www.w3.org/1999/xlink"><g id="tight-bounds" transform="matrix(1,0,0,1,-0.03976000000000113,-0.20718390000000397)"><svg viewBox="0 0 375.07953 242.4143678" height="242.4143678" width="375.07953"><g><svg></svg></g><g><svg viewBox="0 0 375.07953 242.4143678" height="242.4143678" width="375.07953"><g transform="matrix(1,0,0,1,-10.22024,-4.785609999999991)"><path d="M10.22 242.414v-237.628h375.08v237.628l-117.51 0v-7.811l109.699 0v-222.006h-359.458v222.006h9.348l0 7.811z" fill="#7a26c1" fill-rule="nonzero" stroke="none" stroke-width="1" stroke-linecap="butt" stroke-linejoin="miter" stroke-miterlimit="10" stroke-dasharray="" stroke-dashoffset="0" font-family="none" font-weight="none" font-size="none" text-anchor="none" style="mix-blend-mode: normal" data-fill-palette-color="tertiary"></path><g><path transform="translate(50.81177,243.07118) scale(0.34378,0.34378)" d="M27.2 0l-4.96-12.6h-14.5l-4.98 12.6h-2.76l14.36-35.84h1.58l14.06 35.84zM13.65-27.66l-5.01 12.82h12.77l-4.86-12.87c-0.407-1.007-0.893-2.407-1.46-4.2v0c-0.44 1.56-0.92 2.977-1.44 4.25zM63.89-6.91v0c0 2.38-0.903 4.207-2.71 5.48-1.807 1.28-4.37 1.92-7.69 1.92v0c-3.547 0-6.363-0.547-8.45-1.64v0-2.61c2.673 1.333 5.49 2 8.45 2v0c2.62 0 4.61-0.433 5.97-1.3 1.36-0.873 2.04-2.033 2.04-3.48v0c0-1.333-0.54-2.457-1.62-3.37-1.087-0.913-2.867-1.81-5.34-2.69v0c-2.653-0.96-4.517-1.787-5.59-2.48-1.073-0.687-1.883-1.467-2.43-2.34-0.547-0.873-0.82-1.937-0.82-3.19v0c0-1.98 0.837-3.55 2.51-4.71 1.667-1.153 3.997-1.73 6.99-1.73v0c2.867 0 5.583 0.537 8.15 1.61v0l-0.9 2.2c-2.607-1.073-5.023-1.61-7.25-1.61v0c-2.167 0-3.883 0.357-5.15 1.07-1.273 0.713-1.91 1.707-1.91 2.98v0c0 1.38 0.493 2.487 1.48 3.32 0.987 0.827 2.913 1.753 5.78 2.78v0c2.387 0.867 4.127 1.643 5.22 2.33 1.093 0.693 1.91 1.48 2.45 2.36 0.547 0.88 0.82 1.913 0.82 3.1zM81.45 0.49v0c-3.86 0-6.87-1.19-9.03-3.57-2.153-2.373-3.23-5.7-3.23-9.98v0c0-4.233 1.04-7.623 3.12-10.17 2.087-2.547 4.897-3.82 8.43-3.82v0c3.12 0 5.583 1.09 7.39 3.27 1.807 2.18 2.71 5.143 2.71 8.89v0 1.95h-19.11c0.033 3.647 0.883 6.43 2.55 8.35 1.667 1.92 4.057 2.88 7.17 2.88v0c1.513 0 2.843-0.107 3.99-0.32 1.147-0.207 2.597-0.66 4.35-1.36v0 2.19c-1.493 0.653-2.877 1.097-4.15 1.33-1.267 0.24-2.663 0.36-4.19 0.36zM80.74-24.9v0c-2.56 0-4.613 0.84-6.16 2.52-1.54 1.687-2.44 4.117-2.7 7.29v0h16.4c0-3.073-0.667-5.477-2-7.21-1.333-1.733-3.18-2.6-5.54-2.6zM116.06 0h-1.78l-0.61-4.2h-0.19c-1.34 1.707-2.713 2.917-4.12 3.63-1.407 0.707-3.07 1.06-4.99 1.06v0c-2.607 0-4.633-0.667-6.08-2-1.447-1.34-2.17-3.19-2.17-5.55v0c0-2.587 1.077-4.597 3.23-6.03 2.16-1.427 5.283-2.183 9.37-2.27v0l5.05-0.14v-1.76c0-2.52-0.513-4.423-1.54-5.71-1.027-1.287-2.677-1.93-4.95-1.93v0c-2.46 0-5.01 0.683-7.65 2.05v0l-0.9-2.1c2.913-1.367 5.793-2.05 8.64-2.05v0c2.913 0 5.09 0.757 6.53 2.27 1.44 1.513 2.16 3.873 2.16 7.08v0zM104.52-1.71v0c2.827 0 5.06-0.81 6.7-2.43 1.633-1.62 2.45-3.87 2.45-6.75v0-2.61l-4.64 0.19c-3.727 0.18-6.383 0.763-7.97 1.75-1.587 0.987-2.38 2.52-2.38 4.6v0c0 1.66 0.51 2.95 1.53 3.87 1.013 0.92 2.45 1.38 4.31 1.38zM135.11-27.05v0c1.12 0 2.323 0.113 3.61 0.34v0l-0.46 2.32c-1.107-0.273-2.257-0.41-3.45-0.41v0c-2.26 0-4.113 0.96-5.56 2.88-1.447 1.92-2.17 4.343-2.17 7.27v0 14.65h-2.42v-26.54h2.05l0.24 4.79h0.17c1.093-1.953 2.26-3.327 3.5-4.12 1.233-0.787 2.73-1.18 4.49-1.18zM154.71 0.49v0c-3.793 0-6.763-1.197-8.91-3.59-2.147-2.393-3.22-5.73-3.22-10.01v0c0-4.393 1.113-7.817 3.34-10.27 2.233-2.447 5.287-3.67 9.16-3.67v0c2.293 0 4.49 0.4 6.59 1.2v0l-0.66 2.14c-2.293-0.76-4.287-1.14-5.98-1.14v0c-3.253 0-5.72 1.003-7.4 3.01-1.673 2.013-2.51 4.907-2.51 8.68v0c0 3.58 0.837 6.383 2.51 8.41 1.68 2.027 4.023 3.04 7.03 3.04v0c2.413 0 4.653-0.43 6.72-1.29v0 2.24c-1.693 0.833-3.917 1.25-6.67 1.25zM188.77 0h-2.39v-17.21c0-2.673-0.563-4.613-1.69-5.82-1.12-1.213-2.86-1.82-5.22-1.82v0c-3.173 0-5.497 0.8-6.97 2.4-1.473 1.607-2.21 4.207-2.21 7.8v0 14.65h-2.42v-37.99h2.42v12.09l-0.12 3.39h0.17c0.993-1.593 2.247-2.75 3.76-3.47 1.513-0.713 3.393-1.07 5.64-1.07v0c6.02 0 9.03 3.23 9.03 9.69v0zM221.07 0.49v0c-3.86 0-6.867-1.19-9.02-3.57-2.16-2.373-3.24-5.7-3.24-9.98v0c0-4.233 1.043-7.623 3.13-10.17 2.08-2.547 4.887-3.82 8.42-3.82v0c3.127 0 5.593 1.09 7.4 3.27 1.807 2.18 2.71 5.143 2.71 8.89v0 1.95h-19.12c0.033 3.647 0.883 6.43 2.55 8.35 1.673 1.92 4.063 2.88 7.17 2.88v0c1.513 0 2.843-0.107 3.99-0.32 1.147-0.207 2.6-0.66 4.36-1.36v0 2.19c-1.5 0.653-2.883 1.097-4.15 1.33-1.273 0.24-2.673 0.36-4.2 0.36zM220.36-24.9v0c-2.553 0-4.603 0.84-6.15 2.52-1.547 1.687-2.45 4.117-2.71 7.29v0h16.41c0-3.073-0.67-5.477-2.01-7.21-1.333-1.733-3.18-2.6-5.54-2.6zM258.69 0h-2.39v-17.21c0-2.673-0.563-4.613-1.69-5.82-1.12-1.213-2.86-1.82-5.22-1.82v0c-3.173 0-5.497 0.8-6.97 2.4-1.473 1.607-2.21 4.207-2.21 7.8v0 14.65h-2.42v-26.54h2.05l0.47 3.64h0.14c1.727-2.767 4.797-4.15 9.21-4.15v0c6.02 0 9.03 3.23 9.03 9.69v0zM279.49-26.54h8.5v1.69l-5.49 0.34c1.46 1.82 2.19 3.82 2.19 6v0c0 2.56-0.85 4.633-2.55 6.22-1.7 1.587-3.983 2.38-6.85 2.38v0c-1.2 0-2.047-0.05-2.54-0.15v0c-0.96 0.507-1.69 1.1-2.19 1.78-0.507 0.687-0.76 1.413-0.76 2.18v0c0 0.847 0.32 1.463 0.96 1.85 0.647 0.393 1.727 0.59 3.24 0.59v0h4.64c2.88 0 5.083 0.58 6.61 1.74 1.533 1.167 2.3 2.89 2.3 5.17v0c0 2.8-1.137 4.96-3.41 6.48-2.267 1.52-5.5 2.28-9.7 2.28v0c-3.34 0-5.923-0.643-7.75-1.93-1.833-1.287-2.75-3.077-2.75-5.37v0c0-1.82 0.567-3.333 1.7-4.54 1.127-1.207 2.66-2.027 4.6-2.46v0c-0.8-0.347-1.44-0.833-1.92-1.46-0.48-0.627-0.72-1.347-0.72-2.16v0c0-1.773 1.133-3.337 3.4-4.69v0c-1.547-0.633-2.753-1.63-3.62-2.99-0.86-1.36-1.29-2.917-1.29-4.67v0c0-2.653 0.843-4.783 2.53-6.39 1.68-1.6 3.953-2.4 6.82-2.4v0c1.74 0 3.09 0.17 4.05 0.51zM266.5 4.49v0c0 3.647 2.71 5.47 8.13 5.47v0c6.967 0 10.45-2.22 10.45-6.66v0c0-1.6-0.543-2.757-1.63-3.47-1.093-0.72-2.86-1.08-5.3-1.08v0h-4.35c-4.867 0-7.3 1.913-7.3 5.74zM268.53-18.26v0c0 2.047 0.623 3.637 1.87 4.77 1.247 1.133 2.91 1.7 4.99 1.7v0c2.213 0 3.91-0.563 5.09-1.69 1.18-1.12 1.77-2.747 1.77-4.88v0c0-2.26-0.607-3.957-1.82-5.09-1.213-1.133-2.91-1.7-5.09-1.7v0c-2.113 0-3.777 0.607-4.99 1.82-1.213 1.213-1.82 2.903-1.82 5.07zM295.85-26.54v26.54h-2.42v-26.54zM293.09-33.91v0c0-1.56 0.513-2.34 1.54-2.34v0c0.507 0 0.9 0.203 1.18 0.61 0.287 0.407 0.43 0.983 0.43 1.73v0c0 0.733-0.143 1.31-0.43 1.73-0.28 0.427-0.673 0.64-1.18 0.64v0c-1.027 0-1.54-0.79-1.54-2.37zM325.63 0h-2.39v-17.21c0-2.673-0.56-4.613-1.68-5.82-1.127-1.213-2.87-1.82-5.23-1.82v0c-3.173 0-5.497 0.8-6.97 2.4-1.473 1.607-2.21 4.207-2.21 7.8v0 14.65h-2.41v-26.54h2.05l0.46 3.64h0.15c1.727-2.767 4.793-4.15 9.2-4.15v0c6.02 0 9.03 3.23 9.03 9.69v0zM344.95 0.49v0c-3.86 0-6.867-1.19-9.02-3.57-2.16-2.373-3.24-5.7-3.24-9.98v0c0-4.233 1.043-7.623 3.13-10.17 2.08-2.547 4.887-3.82 8.42-3.82v0c3.127 0 5.593 1.09 7.4 3.27 1.807 2.18 2.71 5.143 2.71 8.89v0 1.95h-19.12c0.033 3.647 0.883 6.43 2.55 8.35 1.667 1.92 4.057 2.88 7.17 2.88v0c1.513 0 2.843-0.107 3.99-0.32 1.147-0.207 2.6-0.66 4.36-1.36v0 2.19c-1.5 0.653-2.883 1.097-4.15 1.33-1.273 0.24-2.673 0.36-4.2 0.36zM344.24-24.9v0c-2.553 0-4.603 0.84-6.15 2.52-1.547 1.687-2.45 4.117-2.71 7.29v0h16.4c0-3.073-0.667-5.477-2-7.21-1.333-1.733-3.18-2.6-5.54-2.6zM384.52-26.54v2.1h-6.25v24.44h-2.42v-24.44h-4.93v-1.41l4.93-0.91v-2.05c0-3.253 0.6-5.64 1.8-7.16 1.193-1.527 3.15-2.29 5.87-2.29v0c1.467 0 2.933 0.22 4.4 0.66v0l-0.57 2.1c-1.3-0.407-2.593-0.61-3.88-0.61v0c-1.887 0-3.223 0.557-4.01 1.67-0.793 1.12-1.19 2.933-1.19 5.44v0 2.46zM411.6-13.31v0c0 4.333-1.05 7.717-3.15 10.15-2.1 2.433-4.997 3.65-8.69 3.65v0c-2.333 0-4.387-0.563-6.16-1.69-1.773-1.12-3.13-2.73-4.07-4.83-0.947-2.1-1.42-4.527-1.42-7.28v0c0-4.327 1.05-7.7 3.15-10.12 2.1-2.413 4.98-3.62 8.64-3.62v0c3.647 0 6.507 1.223 8.58 3.67 2.08 2.453 3.12 5.81 3.12 10.07zM390.65-13.31v0c0 3.647 0.8 6.493 2.4 8.54 1.607 2.04 3.873 3.06 6.8 3.06v0c2.933 0 5.2-1.02 6.8-3.06 1.607-2.047 2.41-4.893 2.41-8.54v0c0-3.66-0.81-6.5-2.43-8.52-1.62-2.013-3.897-3.02-6.83-3.02v0c-2.927 0-5.183 1.003-6.77 3.01-1.587 2.013-2.38 4.857-2.38 8.53zM429.39-27.05v0c1.127 0 2.333 0.113 3.62 0.34v0l-0.47 2.32c-1.107-0.273-2.253-0.41-3.44-0.41v0c-2.26 0-4.113 0.96-5.56 2.88-1.453 1.92-2.18 4.343-2.18 7.27v0 14.65h-2.41v-26.54h2.05l0.24 4.79h0.17c1.093-1.953 2.257-3.327 3.49-4.12 1.24-0.787 2.737-1.18 4.49-1.18zM472.29 0h-2.39v-17.21c0-2.673-0.563-4.613-1.69-5.82-1.12-1.213-2.86-1.82-5.22-1.82v0c-3.173 0-5.497 0.8-6.97 2.4-1.473 1.607-2.21 4.207-2.21 7.8v0 14.65h-2.42v-26.54h2.05l0.47 3.64h0.14c1.727-2.767 4.797-4.15 9.21-4.15v0c6.02 0 9.03 3.23 9.03 9.69v0zM502.83-13.31v0c0 4.333-1.05 7.717-3.15 10.15-2.1 2.433-4.997 3.65-8.69 3.65v0c-2.327 0-4.377-0.563-6.15-1.69-1.773-1.12-3.133-2.73-4.08-4.83-0.94-2.1-1.41-4.527-1.41-7.28v0c0-4.327 1.05-7.7 3.15-10.12 2.093-2.413 4.973-3.62 8.64-3.62v0c3.647 0 6.507 1.223 8.58 3.67 2.073 2.453 3.11 5.81 3.11 10.07zM481.88-13.31v0c0 3.647 0.803 6.493 2.41 8.54 1.6 2.04 3.867 3.06 6.8 3.06v0c2.927 0 5.193-1.02 6.8-3.06 1.6-2.047 2.4-4.893 2.4-8.54v0c0-3.66-0.81-6.5-2.43-8.52-1.62-2.013-3.893-3.02-6.82-3.02v0c-2.927 0-5.183 1.003-6.77 3.01-1.593 2.013-2.39 4.857-2.39 8.53zM518.43 0h-2.44l-10.25-26.54h2.49l6.86 18.04c0.913 2.313 1.597 4.333 2.05 6.06v0h0.15c0.667-2.213 1.35-4.247 2.05-6.1v0l6.86-18h2.49zM543.85 0.49v0c-3.86 0-6.867-1.19-9.02-3.57-2.16-2.373-3.24-5.7-3.24-9.98v0c0-4.233 1.043-7.623 3.13-10.17 2.08-2.547 4.887-3.82 8.42-3.82v0c3.127 0 5.593 1.09 7.4 3.27 1.807 2.18 2.71 5.143 2.71 8.89v0 1.95h-19.12c0.033 3.647 0.883 6.43 2.55 8.35 1.667 1.92 4.057 2.88 7.17 2.88v0c1.513 0 2.843-0.107 3.99-0.32 1.147-0.207 2.6-0.66 4.36-1.36v0 2.19c-1.5 0.653-2.883 1.097-4.15 1.33-1.273 0.24-2.673 0.36-4.2 0.36zM543.14-24.9v0c-2.553 0-4.603 0.84-6.15 2.52-1.547 1.687-2.45 4.117-2.71 7.29v0h16.4c0-3.073-0.667-5.477-2-7.21-1.333-1.733-3.18-2.6-5.54-2.6zM562.99-37.99v37.99h-2.42v-37.99z" fill="#7a26c1" fill-rule="nonzero" stroke="none" stroke-width="1" stroke-linecap="butt" stroke-linejoin="miter" stroke-miterlimit="10" stroke-dasharray="" stroke-dashoffset="0" font-family="none" font-weight="none" font-size="none" text-anchor="none" style="mix-blend-mode: normal" data-fill-palette-color="secondary"></path></g></g><g transform="matrix(1,0,0,1,29.33176499999999,72.42828149973326)"><svg viewBox="0 0 316.416 97.55780480053349" height="97.55780480053349" width="316.416"><g><svg viewBox="0 0 547.3305649065159 168.75369264675493" height="97.55780480053349" width="316.416"><g transform="matrix(1,0,0,1,230.9145649065159,9.465637842812114)"><svg viewBox="0 0 316.416 149.8224169611307" height="149.8224169611307" width="316.416"><g id="textblocktransform"><svg viewBox="0 0 316.416 149.8224169611307" height="149.8224169611307" width="316.416" id="textblock"><g><svg viewBox="0 0 316.416 149.8224169611307" height="149.8224169611307" width="316.416"><g transform="matrix(1,0,0,1,0,0)"><svg width="316.416" viewBox="3.69 -35.49890909090909 76 35.98890909090909" height="149.8224169611307" data-palette-color="#7a26c1"><path d="M38.67-35.01L38.67-2.71Q38.67-2.03 38.42-1.44 38.16-0.85 37.73-0.43 37.3 0 36.72 0.24 36.13 0.49 35.47 0.49L35.47 0.49Q34.89 0.49 34.29 0.27 33.69 0.05 33.23-0.44L33.23-0.44 10.03-24.66 10.03 0 3.69 0 3.69-32.3Q3.69-33.28 4.24-34.07 4.79-34.86 5.64-35.25L5.64-35.25Q6.54-35.62 7.5-35.44 8.45-35.25 9.13-34.55L9.13-34.55 32.32-10.35 32.32-35.01 38.67-35.01ZM79.69-10.3L79.69-10.3Q79.69-8.42 79.21-6.92 78.73-5.42 77.95-4.27 77.17-3.13 76.12-2.32 75.07-1.51 73.95-1 72.82-0.49 71.66-0.24 70.51 0 69.48 0L69.48 0 44.99 0 44.99-6.35 69.48-6.35Q71.31-6.35 72.32-7.42 73.34-8.5 73.34-10.3L73.34-10.3Q73.34-11.18 73.07-11.91 72.8-12.65 72.3-13.18 71.8-13.72 71.08-14.01 70.36-14.31 69.48-14.31L69.48-14.31 54.88-14.31Q53.34-14.31 51.56-14.86 49.78-15.41 48.25-16.63 46.73-17.85 45.71-19.82 44.7-21.8 44.7-24.66L44.7-24.66Q44.7-27.51 45.71-29.48 46.73-31.45 48.25-32.68 49.78-33.91 51.56-34.46 53.34-35.01 54.88-35.01L54.88-35.01 76.49-35.01 76.49-28.66 54.88-28.66Q53.07-28.66 52.06-27.56 51.05-26.46 51.05-24.66L51.05-24.66Q51.05-22.83 52.06-21.77 53.07-20.7 54.88-20.7L54.88-20.7 69.48-20.7 69.53-20.7Q70.55-20.68 71.7-20.42 72.85-20.17 73.98-19.63 75.12-19.09 76.14-18.27 77.17-17.46 77.96-16.31 78.76-15.16 79.22-13.67 79.69-12.18 79.69-10.3Z" opacity="1" transform="matrix(1,0,0,1,0,0)" fill="#7a26c1" class="wordmark-text-0" data-fill-palette-color="primary" id="text-0"></path></svg></g></svg></g></svg></g></svg></g><g><svg viewBox="0 0 195.545088 168.75369264675493" height="168.75369264675493" width="195.545088"><g><svg xmlns="http://www.w3.org/2000/svg" xmlns:xlink="http://www.w3.org/1999/xlink" xmlns:a="http://ns.adobe.com/AdobeSVGViewerExtensions/3.0/" version="1.1" x="0" y="0" viewBox="0 -0.00046823527223976286 52.891 45.644468235272235" enable-background="new -23.158 -26.159 100 100" xml:space="preserve" height="168.75369264675493" width="195.545088" class="icon-icon-0" data-fill-palette-color="accent" id="icon-0"><path d="M0 4.181v41.463h52.891V4.181H0zM51.254 43.995H1.637V5.831h49.617V43.995z" fill="#a437db" data-fill-palette-color="accent"></path><path d="M26.357 4.181c0 0-8.02-6.656-23.443-3.172v39.744c15.424-3.482 23.443 3.174 23.443 3.174H26.6h0.242c0 0 8.02-6.656 23.443-3.174V1.009C34.861-2.476 26.842 4.181 26.842 4.181" fill="#a437db" data-fill-palette-color="accent"></path><rect x="25.74" y="3.034" fill="#a437db" width="1.719" height="40.893" data-fill-palette-color="accent"></rect><path fill="#a437db" d="M23.154 8.044C16.477 4.499 8.541 5.509 7.041 5.743V5.05c1.807-0.27 9.727-1.176 16.436 2.389L23.154 8.044z" data-fill-palette-color="accent"></path><path fill="#a437db" d="M23.154 13.253c-6.678-3.547-14.613-2.535-16.113-2.301v-0.693c1.807-0.27 9.727-1.176 16.436 2.389L23.154 13.253z" data-fill-palette-color="accent"></path><path fill="#a437db" d="M23.154 18.462c-6.678-3.547-14.613-2.535-16.113-2.301v-0.693c1.807-0.27 9.727-1.176 16.436 2.389L23.154 18.462z" data-fill-palette-color="accent"></path><path fill="#a437db" d="M23.154 23.612c-6.678-3.547-14.613-2.535-16.113-2.301v-0.695c1.807-0.27 9.727-1.174 16.436 2.389L23.154 23.612z" data-fill-palette-color="accent"></path><path fill="#a437db" d="M23.154 28.88c-6.678-3.547-14.613-2.535-16.113-2.301v-0.693c1.807-0.27 9.727-1.176 16.436 2.387L23.154 28.88z" data-fill-palette-color="accent"></path><path fill="#a437db" d="M23.154 34.089c-6.678-3.545-14.613-2.535-16.113-2.301v-0.693c1.807-0.27 9.727-1.176 16.436 2.387L23.154 34.089z" data-fill-palette-color="accent"></path><path fill="#a437db" d="M29.781 8.044c6.678-3.545 14.613-2.535 16.113-2.301V5.05C44.09 4.78 36.17 3.874 29.459 7.438L29.781 8.044z" data-fill-palette-color="accent"></path><path fill="#a437db" d="M29.781 13.253c6.678-3.547 14.613-2.535 16.113-2.301v-0.693c-1.805-0.27-9.725-1.176-16.436 2.389L29.781 13.253z" data-fill-palette-color="accent"></path><path fill="#a437db" d="M29.781 18.462c6.678-3.547 14.613-2.535 16.113-2.301v-0.693c-1.805-0.27-9.725-1.176-16.436 2.389L29.781 18.462z" data-fill-palette-color="accent"></path><path fill="#a437db" d="M29.781 23.612c6.678-3.547 14.613-2.535 16.113-2.301v-0.695c-1.805-0.27-9.725-1.174-16.436 2.389L29.781 23.612z" data-fill-palette-color="accent"></path><path fill="#a437db" d="M29.781 28.88c6.678-3.547 14.613-2.535 16.113-2.301v-0.693c-1.805-0.27-9.725-1.176-16.436 2.387L29.781 28.88z" data-fill-palette-color="accent"></path><path fill="#a437db" d="M29.781 34.089c6.678-3.545 14.613-2.535 16.113-2.301v-0.693c-1.805-0.27-9.725-1.176-16.436 2.387L29.781 34.089z" data-fill-palette-color="accent"></path></svg></g></svg></g></svg></g></svg></g></svg></g><defs></defs></svg><rect width="375.07953" height="242.4143678" fill="none" stroke="none" visibility="hidden"></rect></g></svg></g></svg>